<svg xmlns="http://www.w3.org/2000/svg" width="800" height="663" viewBox="0 0 800 663" font-family="'IBM Plex Mono', ui-monospace, SFMono-Regular, Menlo, Consolas, monospace" role="img">
<rect width="800" height="663" fill="#fafaf7"/>
<defs><pattern id="grid" width="24" height="24" patternUnits="userSpaceOnUse"><path d="M24 0H0V24" fill="none" stroke="#22262b" stroke-opacity="0.05" stroke-width="1"/></pattern></defs>
<rect width="800" height="663" fill="url(#grid)"/>
<rect x="17" y="17" width="766" height="629" fill="#fafaf7" fill-opacity="0.72" stroke="#22262b" stroke-width="2"/>
<text x="44" y="39.2" font-size="12" font-weight="600" letter-spacing="1.92" fill="#22262b">FIG. 02 — RIGOUR FOLLOWS RISK</text>
<text x="756" y="39.2" font-size="12" letter-spacing="1.92" text-anchor="end" fill="#22262b" fill-opacity="0.7">PROCESS TIERS</text>
<line x1="18" y1="58" x2="782" y2="58" stroke="#22262b" stroke-opacity="0.3" stroke-width="1"/>
<rect x="44" y="80" width="712" height="306" fill="#fafaf7" stroke="#22262b" stroke-width="2"/>
<text x="52" y="102.35" font-size="11" letter-spacing="1.76" fill="#22262b" fill-opacity="0.7">TIER</text>
<text x="152" y="102.35" font-size="11" letter-spacing="1.76" fill="#22262b" fill-opacity="0.7">TRIAGE</text>
<text x="264" y="102.35" font-size="11" letter-spacing="1.76" fill="#22262b" fill-opacity="0.7">SPEC</text>
<text x="344" y="102.35" font-size="11" letter-spacing="1.76" fill="#22262b" fill-opacity="0.7">SPEC</text>
<text x="344" y="119.35" font-size="11" letter-spacing="1.76" fill="#22262b" fill-opacity="0.7">READ BY</text>
<text x="468" y="102.35" font-size="11" letter-spacing="1.76" fill="#22262b" fill-opacity="0.7">TICKETS</text>
<text x="592" y="102.35" font-size="11" letter-spacing="1.76" fill="#22262b" fill-opacity="0.7">BUILD, THEN</text>
<text x="592" y="119.35" font-size="11" letter-spacing="1.76" fill="#22262b" fill-opacity="0.7">VERIFY</text>
<line x1="44" y1="134" x2="756" y2="134" stroke="#22262b" stroke-opacity="0.3" stroke-width="1"/>
<text x="52" y="160.25" font-size="15" font-weight="600" fill="#22262b">Quick</text>
<text x="152" y="159.2" font-size="12" fill="#22262b">In chat or</text>
<text x="152" y="177.2" font-size="12" fill="#22262b">on an issue</text>
<text x="264" y="159.2" font-size="12" fill="#22262b" fill-opacity="0.7">—</text>
<text x="344" y="159.2" font-size="12" fill="#22262b" fill-opacity="0.7">—</text>
<text x="468" y="159.2" font-size="12" fill="#22262b" fill-opacity="0.7">—</text>
<text x="592" y="159.2" font-size="12" fill="#22262b">One session ·</text>
<text x="592" y="177.2" font-size="12" fill="#22262b">QA pair</text>
<line x1="44" y1="194" x2="756" y2="194" stroke="#22262b" stroke-opacity="0.12" stroke-width="1"/>
<text x="52" y="220.25" font-size="15" font-weight="600" fill="#22262b">Standard</text>
<text x="152" y="219.2" font-size="12" fill="#22262b">On an issue</text>
<text x="264" y="219.2" font-size="12" fill="#22262b">Short</text>
<text x="264" y="237.2" font-size="12" fill="#22262b">spec</text>
<text x="344" y="219.2" font-size="12" fill="#22262b">unstated-lens</text>
<text x="468" y="219.2" font-size="12" fill="#22262b" fill-opacity="0.7">—</text>
<text x="592" y="219.2" font-size="12" fill="#22262b">One session ·</text>
<text x="592" y="237.2" font-size="12" fill="#22262b">QA and standards</text>
<text x="592" y="255.2" font-size="12" fill="#22262b">pairs and</text>
<text x="592" y="273.2" font-size="12" fill="#22262b">unstated-lens</text>
<line x1="44" y1="290" x2="756" y2="290" stroke="#22262b" stroke-opacity="0.12" stroke-width="1"/>
<text x="52" y="316.25" font-size="15" font-weight="600" fill="#22262b">Thorough</text>
<text x="152" y="315.2" font-size="12" fill="#22262b">On an issue</text>
<text x="264" y="315.2" font-size="12" fill="#22262b">Full</text>
<text x="264" y="333.2" font-size="12" fill="#22262b">spec</text>
<text x="344" y="315.2" font-size="12" fill="#22262b">Spec pair and</text>
<text x="344" y="333.2" font-size="12" fill="#22262b">unstated-lens</text>
<text x="468" y="315.2" font-size="12" fill="#22262b">Thin slices</text>
<text x="468" y="333.2" font-size="12" fill="#22262b">with</text>
<text x="468" y="351.2" font-size="12" fill="#22262b">done-criteria</text>
<text x="592" y="315.2" font-size="12" fill="#22262b">One session per</text>
<text x="592" y="333.2" font-size="12" fill="#22262b">ticket · QA and</text>
<text x="592" y="351.2" font-size="12" fill="#22262b">standards pairs</text>
<text x="592" y="369.2" font-size="12" fill="#22262b">and unstated-lens</text>
<line x1="144" y1="81" x2="144" y2="385" stroke="#22262b" stroke-opacity="0.3" stroke-width="1"/>
<line x1="256" y1="81" x2="256" y2="385" stroke="#22262b" stroke-opacity="0.12" stroke-width="1"/>
<line x1="336" y1="81" x2="336" y2="385" stroke="#22262b" stroke-opacity="0.12" stroke-width="1"/>
<line x1="460" y1="81" x2="460" y2="385" stroke="#22262b" stroke-opacity="0.12" stroke-width="1"/>
<line x1="584" y1="81" x2="584" y2="385" stroke="#22262b" stroke-opacity="0.12" stroke-width="1"/>
<rect x="44" y="410" width="712" height="144" fill="#fafaf7" stroke="#b45309" stroke-width="2"/>
<rect x="54" y="407" width="273.8" height="6" fill="#fafaf7"/>
<text x="60" y="414" font-size="11" font-weight="600" letter-spacing="1.76" fill="#b45309">RISK FLOOR · ALWAYS THOROUGH</text>
<text x="60" y="447.4" font-size="14" fill="#22262b">Auth, secrets, crypto, input validation and data migrations are</text>
<text x="60" y="468.4" font-size="14" fill="#22262b">thorough, whatever tier is named.</text>
<text x="60" y="494.55" font-size="13" fill="#22262b" fill-opacity="0.8">Auth, secrets, crypto and input validation also take the security route:</text>
<text x="60" y="514.55" font-size="13" fill="#22262b" fill-opacity="0.8">the security pair reads the spec before you approve it, and the diff after</text>
<text x="60" y="534.55" font-size="13" fill="#22262b" fill-opacity="0.8">the build.</text>
<line x1="44" y1="576" x2="756" y2="576" stroke="#22262b" stroke-opacity="0.3" stroke-width="1"/>
<text x="44" y="598.35" font-size="11" letter-spacing="1.76" fill="#22262b" fill-opacity="0.7">PLANS</text>
<text x="44" y="617.55" font-size="13" font-weight="500" fill="#22262b">Opus</text>
<line x1="281.33" y1="576" x2="281.33" y2="623" stroke="#22262b" stroke-opacity="0.12" stroke-width="1"/>
<text x="293.33" y="598.35" font-size="11" letter-spacing="1.76" fill="#22262b" fill-opacity="0.7">BUILDS</text>
<text x="293.33" y="617.55" font-size="13" font-weight="500" fill="#22262b">Sonnet · Opus for quick</text>
<line x1="518.67" y1="576" x2="518.67" y2="623" stroke="#22262b" stroke-opacity="0.12" stroke-width="1"/>
<text x="530.67" y="598.35" font-size="11" letter-spacing="1.76" fill="#22262b" fill-opacity="0.7">SECURITY WORK</text>
<text x="530.67" y="617.55" font-size="13" font-weight="500" fill="#22262b">Opus, high effort</text>
</svg>
